# xmcd CD database file
# 
# Track frame offsets:
# 	150
# 	4363
# 	18300
# 	35211
# 	48676
# 	72386
# 	98292
# 	114307
# 	127202
# 	144487
# 	167212
# 	188625
# 	211175
# 	229112
# 
# Disc length: 3220 seconds
# 
# Submitted via: Nero 5.5.10.20
# 
# Revision: 0
# Processed by: cddbd v1.4PL0 Copyright (c) Steve Scherf et al.
#
DISCID=c40c920e
DTITLE=Rusty Wier - "Under My Hat" - The Original Recordings
DYEAR=1900
DGENRE=
TTITLE0=Listen To My Song
TTITLE1=Just One More Time
TTITLE2=Don't It Make You Wanna Dance
TTITLE3=I Don't Want To Lay This Guitar Down
TTITLE4=Fly Away
TTITLE5=Sally Mae
TTITLE6=Trouble
TTITLE7=Believe In The Way That You Love Me
TTITLE8=Agua Dulce
TTITLE9=I Heard You Been Laying My Old Lady
TTITLE10=Texas Morning
TTITLE11=Black Hat Saloon
TTITLE12=The Devil Lives In Dallas
TTITLE13=The Coast Of Colorado
EXTD=
EXTT0=
EXTT1=
EXTT2=
EXTT3=
EXTT4=
EXTT5=
EXTT6=
EXTT7=
EXTT8=
EXTT9=
EXTT10=
EXTT11=
EXTT12=
EXTT13=
PLAYORDER=
